<svg xmlns="http://www.w3.org/2000/svg" viewBox="0 0 1200 720"><defs><linearGradient id="g" x1="0" y1="0" x2="1" y2="1"><stop stop-color="#15152a"/><stop offset="1" stop-color="#32265f"/></linearGradient><linearGradient id="q" x1="0" y1="0" x2="1" y2="1"><stop stop-color="#7cf29b"/><stop offset="1" stop-color="#8f6cff"/></linearGradient></defs><rect width="1200" height="720" rx="40" fill="url(#g)"/><circle cx="1040" cy="110" r="150" fill="#7d62ff" opacity=".12"/><circle cx="160" cy="620" r="170" fill="#62ef9a" opacity=".08"/><text x="72" y="92" fill="#8df5aa" font-family="Arial,sans-serif" font-size="18" font-weight="700" letter-spacing="4">QUOTESPARK • ANDROID</text><text x="72" y="146" fill="#fff" font-family="Arial,sans-serif" font-size="46" font-weight="700">Random Quote Generator</text><text x="72" y="182" fill="#c8c8dc" font-family="Arial,sans-serif" font-size="20">Discover, save and share inspiring quotes offline</text><rect x="270" y="226" width="660" height="404" rx="36" fill="#0e1020" stroke="#444766" stroke-width="2"/><rect x="302" y="258" width="596" height="52" rx="18" fill="#191c30"/><text x="330" y="291" fill="#dfe1ef" font-family="Arial,sans-serif" font-size="20" font-weight="700">QuoteSpark</text><circle cx="852" cy="284" r="9" fill="#7cf29b"/><rect x="334" y="338" width="532" height="180" rx="24" fill="url(#q)"/><text x="600" y="382" text-anchor="middle" fill="#182038" font-family="Arial,sans-serif" font-size="42" font-weight="700">“</text><text x="600" y="430" text-anchor="middle" fill="#fff" font-family="Arial,sans-serif" font-size="22">A little progress each day</text><text x="600" y="462" text-anchor="middle" fill="#fff" font-family="Arial,sans-serif" font-size="22">adds up to big results.</text><text x="600" y="494" text-anchor="middle" fill="#edf8ef" font-family="Arial,sans-serif" font-size="14">— QuoteSpark</text><rect x="334" y="542" width="252" height="44" rx="14" fill="#7cf29b"/><text x="460" y="570" text-anchor="middle" fill="#172034" font-family="Arial,sans-serif" font-size="15" font-weight="700">Generate new spark ↗</text><rect x="602" y="542" width="122" height="44" rx="14" fill="#1c2034" stroke="#56607a"/><text x="663" y="570" text-anchor="middle" fill="#fff" font-family="Arial,sans-serif" font-size="14">♡ Save</text><rect x="738" y="542" width="128" height="44" rx="14" fill="#1c2034" stroke="#56607a"/><text x="802" y="570" text-anchor="middle" fill="#fff" font-family="Arial,sans-serif" font-size="14">↗ Share</text></svg>